<?xml version="1.0" encoding="utf-8"?>
<!-- Generator: Adobe Illustrator 24.3.0, SVG Export Plug-In . SVG Version: 6.00 Build 0)  -->
<svg version="1.1" id="Layer_1" xmlns="http://www.w3.org/2000/svg" xmlns:xlink="http://www.w3.org/1999/xlink" x="0px" y="0px"
	 viewBox="0 0 600 480" style="enable-background:new 0 0 600 480;" xml:space="preserve">
<style type="text/css">
	.st0{fill:none;}
	.st1{fill:none;stroke:#808080;stroke-width:0.5;stroke-dasharray:2,4;}
	.st2{fill:none;stroke:#E3E3E3;stroke-width:0.5;}
	.st3{font-family:'ArialMT';}
	.st4{font-size:12px;}
	.st5{enable-background:new    ;}
	.st6{fill:none;stroke:#9400D3;stroke-width:2;}
	.st7{fill:none;stroke:#009E73;stroke-width:2;}
</style>
<desc>Produced by GNUPLOT 5.4 patchlevel 1</desc>
<rect class="st0" width="600" height="480"/>
<g>
	<path class="st1" d="M297.9,240"/>
</g>
<g>
	<path class="st2" d="M356.2,240l-0.1-2.5l-0.2-2.5l-0.3-2.5l-0.4-2.5l-0.5-2.5l-0.6-2.5l-0.7-2.4l-0.8-2.4l-0.9-2.4l-1-2.3
		l-1.1-2.3l-1.2-2.2l-1.3-2.2l-1.4-2.1l-1.5-2.1l-1.6-2l-1.7-1.9l-1.8-1.8l-1.8-1.8l-1.9-1.7l-2-1.6l-2.1-1.5l-2.1-1.4l-2.2-1.3
		l-2.2-1.2l-2.3-1.1l-2.3-1l-2.4-0.9l-2.4-0.8l-2.4-0.7l-2.5-0.6l-2.5-0.5l-2.5-0.4l-2.5-0.3l-2.5-0.2l-2.5-0.1l-2.5,0.1l-2.5,0.2
		l-2.5,0.3l-2.5,0.4l-2.5,0.5l-2.5,0.6l-2.4,0.7l-2.4,0.8l-2.4,0.9l-2.3,1l-2.3,1.1l-2.2,1.2l-2.2,1.3l-2.1,1.4l-2,1.5l-2,1.6
		l-1.9,1.7l-1.8,1.8l-1.8,1.8l-1.7,1.9l-1.6,2l-1.5,2.1l-1.4,2.1l-1.3,2.2l-1.2,2.2l-1.1,2.3l-1,2.3l-0.9,2.4l-0.8,2.4l-0.7,2.4
		l-0.6,2.5l-0.5,2.5l-0.4,2.5l-0.3,2.5l-0.2,2.5l-0.1,2.5l0.1,2.6l0.2,2.5l0.3,2.5l0.4,2.5l0.5,2.5l0.6,2.5l0.7,2.4l0.8,2.4l0.9,2.4
		l1,2.3l1.1,2.3l1.2,2.2l1.3,2.2l1.4,2.1l1.5,2l1.6,2l1.7,1.9l1.8,1.8l1.8,1.8l1.9,1.7l2,1.6l2,1.5l2.1,1.4l2.2,1.3l2.2,1.2l2.3,1.1
		l2.3,1l2.4,0.9l2.4,0.8l2.4,0.7l2.5,0.6l2.5,0.5l2.5,0.4l2.5,0.3l2.5,0.2l2.5,0.1l2.5-0.1l2.5-0.2l2.5-0.3l2.5-0.4l2.5-0.5l2.5-0.6
		l2.4-0.7l2.4-0.8l2.4-0.9l2.3-1l2.3-1.1l2.2-1.2l2.2-1.3l2.1-1.4l2.1-1.5l2-1.6l1.9-1.7l1.8-1.8l1.8-1.8l1.7-1.9l1.6-2l1.5-2
		l1.4-2.1l1.3-2.2l1.2-2.2l1.1-2.3l1-2.3l0.9-2.4l0.8-2.4l0.7-2.4l0.6-2.5l0.5-2.5l0.4-2.5l0.3-2.5l0.2-2.5L356.2,240"/>
</g>
<g transform="translate(356.18,261.90)">
	<text transform="matrix(1 0 0 1 3.4384 -30.097)" class="st3 st4">0.02</text>
</g>
<g>
	<path class="st2" d="M414.5,240l-0.1-5.1l-0.3-5.1l-0.5-5.1l-0.8-5l-1-5l-1.2-4.9l-1.4-4.9l-1.6-4.8l-1.8-4.7l-2-4.7l-2.2-4.6
		l-2.4-4.5l-2.6-4.4l-2.8-4.2l-3-4.1l-3.2-4l-3.4-3.8l-3.5-3.7l-3.7-3.5l-3.8-3.3l-4-3.2l-4.1-3l-4.2-2.8l-4.4-2.6l-4.5-2.4
		l-4.6-2.2l-4.7-2.1l-4.7-1.8l-4.8-1.6l-4.9-1.4l-4.9-1.2l-5-1l-5-0.8l-5.1-0.6l-5.1-0.3l-5.1-0.1l-5.1,0.1l-5.1,0.3l-5.1,0.6
		l-5,0.8l-5,1l-4.9,1.2l-4.9,1.4l-4.8,1.6l-4.7,1.8l-4.7,2.1l-4.6,2.2l-4.5,2.4l-4.4,2.6l-4.2,2.8l-4.1,3l-4,3.2l-3.8,3.3l-3.7,3.5
		l-3.5,3.7l-3.3,3.8l-3.2,4l-3,4.1l-2.8,4.2l-2.6,4.4l-2.4,4.5l-2.2,4.6l-2.1,4.7l-1.8,4.7l-1.6,4.8l-1.4,4.9l-1.2,4.9l-1,5l-0.8,5
		l-0.6,5.1l-0.3,5.1l-0.1,5.1l0.1,5.1l0.3,5.1l0.6,5.1l0.8,5l1,5l1.2,4.9l1.4,4.9l1.6,4.8l1.8,4.7l2.1,4.7l2.2,4.6l2.4,4.5l2.6,4.4
		l2.8,4.2l3,4.1l3.2,4l3.3,3.8l3.5,3.7l3.7,3.5l3.8,3.3l4,3.2l4.1,3l4.2,2.8l4.4,2.6l4.5,2.4l4.6,2.2l4.7,2.1l4.7,1.8l4.8,1.6
		l4.9,1.4l4.9,1.2l5,1l5,0.8l5.1,0.6l5.1,0.3l5.1,0.1l5.1-0.1l5.1-0.3l5.1-0.6l5-0.8l5-1l4.9-1.2l4.9-1.4l4.8-1.6l4.7-1.8l4.7-2.1
		l4.6-2.2l4.5-2.4l4.4-2.6l4.2-2.8l4.1-3l4-3.2l3.8-3.3l3.7-3.5l3.5-3.7l3.4-3.8l3.2-4l3-4.1l2.8-4.2l2.6-4.4l2.4-4.5l2.2-4.6l2-4.7
		l1.8-4.7l1.6-4.8l1.4-4.9l1.2-4.9l1-5l0.8-5l0.5-5.1l0.3-5.1L414.5,240"/>
</g>
<g transform="translate(414.46,261.90)">
	<text transform="matrix(1 0 0 1 0.586 -48.1066)" class="st3 st4">0.04</text>
</g>
<g>
	<path class="st2" d="M472.8,240l-0.2-7.6l-0.5-7.6l-0.8-7.6l-1.2-7.5l-1.5-7.5l-1.8-7.4l-2.1-7.3l-2.5-7.2l-2.8-7.1l-3.1-7
		l-3.4-6.8l-3.7-6.7l-4-6.5l-4.2-6.3l-4.5-6.2l-4.8-5.9l-5-5.7l-5.3-5.5l-5.5-5.3l-5.7-5l-6-4.8l-6.1-4.5l-6.4-4.2l-6.5-4l-6.7-3.7
		l-6.8-3.4l-7-3.1l-7.1-2.8l-7.2-2.5l-7.3-2.1l-7.4-1.8l-7.5-1.5l-7.5-1.2l-7.6-0.8l-7.6-0.5l-7.6-0.2l-7.6,0.2l-7.6,0.5l-7.6,0.8
		l-7.5,1.2l-7.5,1.5l-7.4,1.8l-7.3,2.1l-7.2,2.5l-7.1,2.8l-7,3.1l-6.8,3.4l-6.7,3.7l-6.5,4l-6.3,4.2l-6.2,4.5l-5.9,4.8l-5.7,5
		l-5.5,5.3l-5.3,5.5l-5,5.7l-4.8,5.9l-4.5,6.2l-4.2,6.3l-4,6.5l-3.7,6.7l-3.4,6.8l-3.1,7l-2.8,7.1l-2.5,7.2l-2.1,7.3l-1.8,7.4
		l-1.5,7.5l-1.2,7.5l-0.8,7.6l-0.5,7.6L123,240l0.2,7.6l0.5,7.6l0.8,7.6l1.2,7.5l1.5,7.5l1.8,7.4l2.1,7.3l2.5,7.2l2.8,7.1l3.1,7
		l3.4,6.8l3.7,6.7l4,6.5l4.2,6.3l4.5,6.2l4.8,5.9l5,5.7l5.3,5.5l5.5,5.3l5.7,5l5.9,4.8l6.2,4.5l6.3,4.2l6.5,4l6.7,3.7l6.8,3.4l7,3.1
		l7.1,2.8l7.2,2.5l7.3,2.1l7.4,1.8l7.5,1.5l7.5,1.2l7.6,0.8l7.6,0.5l7.6,0.2l7.6-0.2l7.6-0.5l7.6-0.8l7.5-1.2l7.5-1.5l7.4-1.8
		l7.3-2.1l7.2-2.5l7.1-2.8l7-3.1l6.8-3.4l6.7-3.7l6.5-4l6.4-4.2l6.1-4.5l6-4.8l5.7-5l5.5-5.3l5.3-5.5l5-5.7l4.8-5.9l4.5-6.2l4.2-6.3
		l4-6.5l3.7-6.7l3.4-6.8l3.1-7l2.8-7.1l2.5-7.2l2.1-7.3l1.8-7.4l1.5-7.5l1.2-7.5l0.8-7.6l0.5-7.6L472.8,240"/>
</g>
<g transform="translate(472.75,261.90)">
	<text transform="matrix(1 0 0 1 -2.2672 -66.1189)" class="st3 st4">0.06</text>
</g>
<path class="st2" d="M297.9,240l0-174.9 M297.9,240l0-174.9"/>
<path class="st2" d="M297.9,240l166.3-54 M297.9,240l166.3-54"/>
<path class="st2" d="M297.9,240l102.8,141.5 M297.9,240l102.8,141.5"/>
<path class="st2" d="M297.9,240l-166.3-54 M297.9,240l-166.3-54"/>
<path class="st2" d="M297.9,240L195.1,381.5 M297.9,240L195.1,381.5"/>
<text transform="matrix(1 0 0 1 263.3517 58.7453)" class="st3 st4">current DA</text>
<text transform="matrix(1 0 0 1 55.1091 178.3053)" class="st5"><tspan x="0" y="0" class="st3 st4">previous DA </tspan><tspan x="-5" y="14.4" class="st3 st4">same speaker</tspan></text>
<text transform="matrix(1 0 0 1 481.6448 159.7239)" class="st5"><tspan x="0" y="0" class="st3 st4">next DA </tspan><tspan x="-16.3" y="14.4" class="st3 st4">same speaker</tspan></text>
<text transform="matrix(1 0 0 1 405.397 391.6706)" class="st5"><tspan x="0" y="0" class="st3 st4">next DA </tspan><tspan x="-15.3" y="14.4" class="st3 st4">other speaker</tspan></text>
<text transform="matrix(1 0 0 1 124.9494 391.6708)" class="st5"><tspan x="0" y="0" class="st3 st4">previous DA </tspan><tspan x="-4" y="14.4" class="st3 st4">other speaker</tspan></text>
<g transform="translate(434.16,57.91)">
	<text transform="matrix(1 0 0 1 -207.4331 387.3208)" class="st3 st4">Statement-non-opinion</text>
</g>
<path class="st6" d="M356.5,441.3h42.6 M297.9,106.7L257.8,227l-0.8,69.4l95.7,19.1l4.7-94.7L297.9,106.7"/>
<g>
	<g transform="translate(434.16,75.91)">
		<text transform="matrix(1 0 0 1 -237.439 387.3208)" class="st3 st4">Acknowledge (Backchannel)</text>
	</g>
</g>
<g>
	<path class="st7" d="M356.5,459.3h42.6 M297.9,182.1l-3.6,56.7L215.8,353l134.4-41l-18.3-83L297.9,182.1"/>
</g>
</svg>
